<svg xmlns="http://www.w3.org/2000/svg" xmlns:xlink="http://www.w3.org/1999/xlink" version="1.1" id="Layer_1" x="0px" y="0px" viewBox="0 0 124.5 108.8" enable-background="new 0 0 124.5 108.8" xml:space="preserve">
<g>
	<path fill="#F37A38" d="M66 67.2h-0.1c-1.6 0-3-0.9-3.7-2.2c-0.2 0.4-0.5 0.8-0.8 1.1c-0.8 0.7-1.8 1.2-2.9 1.2l0 0h-0.1 c0.4 0.6 0.6 1.4 0.6 2.2s-0.2 1.6-0.6 2.2h0.1c1.6 0 3 0.9 3.7 2.3c0.7-1.3 2.1-2.2 3.7-2.2H66c-0.4-0.6-0.6-1.4-0.6-2.2 C65.4 68.6 65.6 67.9 66 67.2z"/>
	<path fill="#1B76A6" d="M61.4 63.1V3c0-1.9-1.5-2.9-2.9-2.9c-1 0-1.9 0.5-2.5 1.5L30 46.7c-0.8 1.4-0.3 3.2 1.1 4l26 15 c0.5 0.3 0.9 0.4 1.4 0.4l0 0c0.7 0 1.5-0.3 2-0.8C61.1 64.6 61.4 63.8 61.4 63.1z"/>
	<path fill="#59B5E6" d="M65.9 66c0.5 0 1-0.1 1.4-0.4l26-15c1.4-0.8 1.9-2.6 1.1-4l-26-45.1C67.9 0.6 67 0 65.9 0 C64.5 0 63 1 63 2.9V63C63 64.8 64.5 66 65.9 66z"/>
	<path fill="#D5EFFB" d="M68.1 66.9c-0.9 0.5-1.4 1.5-1.4 2.5s0.5 2 1.4 2.5l52.1 30.1c1.4 0.8 3.2 0.3 4-1.1c0.5-0.9 0.5-1.9 0-2.9 l-26-45.1c-0.5-0.9-1.5-1.4-2.5-1.4c-0.5 0-1 0.1-1.4 0.4L68.1 66.9z"/>
	<path fill="#59B5E6" d="M56.3 66.9l-26-15c-0.4-0.3-0.9-0.4-1.4-0.4c-1 0-2 0.6-2.5 1.4L0.4 98c-0.5 0.9-0.5 2 0 2.9 s1.5 1.5 2.5 1.5c0.5 0 1-0.1 1.5-0.4l52.1-30.1c0.9-0.5 1.4-1.5 1.4-2.5C57.8 68.4 57.2 67.4 56.3 66.9z"/>
	<path fill="#1B76A6" d="M63 75.8v30.1c0 1.6 1.3 2.9 2.9 2.9H118c1.6 0 2.5-1.2 2.8-2.1c0.3-1 0.1-2.4-1.3-3.3L67.4 73.3 c-0.5-0.3-0.9-0.4-1.4-0.4C64.5 72.9 63 74 63 75.8z"/>
	<path fill="#D5EFFB" d="M58.5 72.9c-0.5 0-1 0.1-1.4 0.4L5 103.4c-1.4 0.8-1.6 2.3-1.3 3.3c0.3 1 1.2 2.1 2.8 2.1h52.1 c1.6 0 2.9-1.3 2.9-2.9V75.8C61.4 74 59.9 72.9 58.5 72.9z"/>
</g>
</svg>
