<?xml version="1.0" encoding="utf-8"?>
<!-- Generator: Adobe Illustrator 18.0.0, SVG Export Plug-In . SVG Version: 6.00 Build 0)  -->
<!DOCTYPE svg PUBLIC "-//W3C//DTD SVG 1.1//EN" "http://www.w3.org/Graphics/SVG/1.1/DTD/svg11.dtd">
<svg version="1.1" id="Layer_1" xmlns="http://www.w3.org/2000/svg" xmlns:xlink="http://www.w3.org/1999/xlink" x="0px" y="0px"
	 viewBox="408.6 67.5 203.8 395.6" enable-background="new 408.6 67.5 203.8 395.6" xml:space="preserve">
<g>
	<path fill="#414042" d="M510.5,463.1c-27.1,0-52.6-10.6-71.9-30c-19.3-19.3-30-44.9-30-71.9V169.4c0-27.1,10.6-52.6,30-71.9
		c19.3-19.3,44.9-30,71.9-30c27.1,0,52.6,10.6,71.9,30c19.3,19.3,30,44.9,30,71.9v191.8c0,27.1-10.6,52.6-30,71.9
		S537.6,463.1,510.5,463.1z M510.5,72.5c-53.4,0-96.9,43.5-96.9,96.9v191.8c0,53.4,43.5,96.9,96.9,96.9s96.9-43.5,96.9-96.9V169.4
		C607.4,116,563.9,72.5,510.5,72.5z"/>
</g>
<g>
	<g>
		<rect x="506" y="140" fill="#414042" width="9" height="236.1"/>
	</g>
	<g>
		<g>
			<polygon fill="#414042" points="495.2,358.2 510.5,373.5 525.8,358.2 525.8,371.1 510.5,386.4 495.2,371.1 			"/>
		</g>
	</g>
</g>
</svg>
